<svg id="Layer_1" data-name="Layer 1" xmlns="http://www.w3.org/2000/svg" viewBox="0 0 25 25"><defs><style>.cls-1{fill:#fff;}.cls-2{fill:#929497;}</style></defs><title>Artboard 1</title><circle class="cls-1" cx="12.5" cy="12.5" r="12.38"/><path class="cls-2" d="M8.75,14.16V10.57A3.68,3.68,0,0,1,9,9.25a3.39,3.39,0,0,1,.7-1.1,3.48,3.48,0,0,1,1.08-.75,3.92,3.92,0,0,1,2.86,0,3.46,3.46,0,0,1,1.1.75,3.09,3.09,0,0,1,.7,1.1,3.68,3.68,0,0,1,.25,1.32v3.59a3.59,3.59,0,0,1-.25,1.31,3.22,3.22,0,0,1-.7,1.11,3.46,3.46,0,0,1-1.1.75,3.92,3.92,0,0,1-2.86,0,3.48,3.48,0,0,1-1.08-.75A3.55,3.55,0,0,1,9,15.47,3.58,3.58,0,0,1,8.75,14.16Zm1.31,0a2.49,2.49,0,0,0,.15.87,2.28,2.28,0,0,0,.44.71,2,2,0,0,0,.67.49,1.93,1.93,0,0,0,.88.19,2,2,0,0,0,.9-.19,1.94,1.94,0,0,0,.67-.49,2.28,2.28,0,0,0,.44-.71,2.49,2.49,0,0,0,.15-.87V10.57a2.58,2.58,0,0,0-.15-.88A2.07,2.07,0,0,0,13.77,9a2,2,0,0,0-.67-.48,2.19,2.19,0,0,0-.9-.18,2.07,2.07,0,0,0-.88.18,2.16,2.16,0,0,0-.67.48,2,2,0,0,0-.44.72,2.49,2.49,0,0,0-.15.87Z"/></svg>